<?xml version="1.0" encoding="UTF-8" standalone="no"?><svg xmlns="http://www.w3.org/2000/svg" xmlns:xlink="http://www.w3.org/1999/xlink" contentScriptType="application/ecmascript" contentStyleType="text/css" height="320px" preserveAspectRatio="none" style="width:939px;height:320px;" version="1.1" viewBox="0 0 939 320" width="939px" zoomAndPan="magnify"><defs><filter height="300%" id="f1g9hqddoy0017" width="300%" x="-1" y="-1"><feGaussianBlur result="blurOut" stdDeviation="2.0"/><feColorMatrix in="blurOut" result="blurOut2" type="matrix" values="0 0 0 0 0 0 0 0 0 0 0 0 0 0 0 0 0 0 .4 0"/><feOffset dx="4.0" dy="4.0" in="blurOut2" result="blurOut3"/><feBlend in="SourceGraphic" in2="blurOut3" mode="normal"/></filter></defs><g><!--MD5=[d48f46fc1837902d68f106b28a7d2aa9]
cluster 简单工厂--><rect fill="#FFFFFF" filter="url(#f1g9hqddoy0017)" height="277.5" style="stroke: #000000; stroke-width: 1.5;" width="547" x="22" y="24"/><text fill="#000000" font-family="sans-serif" font-size="14" font-weight="bold" lengthAdjust="spacingAndGlyphs" textLength="56" x="267.5" y="42.0439">简单工厂</text><!--MD5=[09981669a5b94301691cf1647aeb56f7]
cluster 工厂方法--><rect fill="#FFFFFF" filter="url(#f1g9hqddoy0017)" height="277.5" style="stroke: #000000; stroke-width: 1.5;" width="335" x="593" y="31.5"/><text fill="#000000" font-family="sans-serif" font-size="14" font-weight="bold" lengthAdjust="spacingAndGlyphs" textLength="56" x="732.5" y="49.5439">工厂方法</text><!--MD5=[26f5c61a402468dcc7e4daedc2568d01]
class PizzaStore--><rect fill="#FEFECE" filter="url(#f1g9hqddoy0017)" height="63.0229" id="PizzaStore" style="stroke: #A80036; stroke-width: 1.5;" width="138" x="38" y="84.5"/><ellipse cx="75.05" cy="100.5" fill="#ADD1B2" rx="11" ry="11" style="stroke: #A80036; stroke-width: 1.0;"/><path d="M74.7375,106.5 Q72.8,106.5 71.675,105.0703 Q70.55,103.6406 70.55,100.6875 Q70.55,98.1875 71.7375,96.5 Q72.925,94.8125 74.9875,94.8125 Q75.4406,94.8125 75.8781,94.8125 Q76.3156,94.8125 76.6281,94.8125 Q76.8781,94.8125 77.0422,94.8125 Q77.2063,94.8125 77.6125,94.8125 L78.3156,98.5 L77.2531,98.5 Q76.8156,97.4063 76.2453,96.9531 Q75.675,96.5 74.7531,96.5 Q73.5969,96.5 72.9172,97.6797 Q72.2375,98.8594 72.2375,100.6875 Q72.2375,102.7031 72.7609,103.7578 Q73.2844,104.8125 74.6906,104.8125 Q75.6125,104.8125 76.2609,104.2422 Q76.9094,103.6719 77.2531,102.2813 L78.2844,102.7969 Q77.8938,104.5469 76.9563,105.5234 Q76.0188,106.5 74.7375,106.5 Z "/><text fill="#000000" font-family="sans-serif" font-size="12" lengthAdjust="spacingAndGlyphs" textLength="57" x="93.95" y="106.0576">PizzaStore</text><line style="stroke: #A80036; stroke-width: 1.5;" x1="39" x2="175" y1="116.5" y2="116.5"/><line style="stroke: #A80036; stroke-width: 1.5;" x1="39" x2="175" y1="124.5" y2="124.5"/><ellipse cx="49" cy="135.5" fill="#84BE84" rx="3" ry="3" style="stroke: #038048; stroke-width: 1.0;"/><text fill="#000000" font-family="sans-serif" font-size="11" lengthAdjust="spacingAndGlyphs" textLength="112" x="58" y="141.106">orderPizza(String type)</text><!--MD5=[61dcaf4362fbc82af5aa092c6c4985a3]
class SimpleFactory--><rect fill="#FEFECE" filter="url(#f1g9hqddoy0017)" height="63.0229" id="SimpleFactory" style="stroke: #A80036; stroke-width: 1.5;" width="143" x="211.5" y="84.5"/><ellipse cx="241.35" cy="100.5" fill="#ADD1B2" rx="11" ry="11" style="stroke: #A80036; stroke-width: 1.0;"/><path d="M241.0375,106.5 Q239.1,106.5 237.975,105.0703 Q236.85,103.6406 236.85,100.6875 Q236.85,98.1875 238.0375,96.5 Q239.225,94.8125 241.2875,94.8125 Q241.7406,94.8125 242.1781,94.8125 Q242.6156,94.8125 242.9281,94.8125 Q243.1781,94.8125 243.3422,94.8125 Q243.5063,94.8125 243.9125,94.8125 L244.6156,98.5 L243.5531,98.5 Q243.1156,97.4063 242.5453,96.9531 Q241.975,96.5 241.0531,96.5 Q239.8969,96.5 239.2172,97.6797 Q238.5375,98.8594 238.5375,100.6875 Q238.5375,102.7031 239.0609,103.7578 Q239.5844,104.8125 240.9906,104.8125 Q241.9125,104.8125 242.5609,104.2422 Q243.2094,103.6719 243.5531,102.2813 L244.5844,102.7969 Q244.1938,104.5469 243.2563,105.5234 Q242.3188,106.5 241.0375,106.5 Z "/><text fill="#000000" font-family="sans-serif" font-size="12" lengthAdjust="spacingAndGlyphs" textLength="78" x="258.65" y="106.0576">SimpleFactory</text><line style="stroke: #A80036; stroke-width: 1.5;" x1="212.5" x2="353.5" y1="116.5" y2="116.5"/><line style="stroke: #A80036; stroke-width: 1.5;" x1="212.5" x2="353.5" y1="124.5" y2="124.5"/><ellipse cx="222.5" cy="135.5" fill="#84BE84" rx="3" ry="3" style="stroke: #038048; stroke-width: 1.0;"/><text fill="#000000" font-family="sans-serif" font-size="11" lengthAdjust="spacingAndGlyphs" textLength="117" x="231.5" y="141.106">createPizza(String type)</text><!--MD5=[5c5a2dd8ed299478ae091ad6bda6d6bd]
class Pizza--><rect fill="#FEFECE" filter="url(#f1g9hqddoy0017)" height="108.0918" id="Pizza" style="stroke: #A80036; stroke-width: 1.5;" width="72" x="390" y="62"/><ellipse cx="410.4" cy="78" fill="#ADD1B2" rx="11" ry="11" style="stroke: #A80036; stroke-width: 1.0;"/><path d="M410.0875,84 Q408.15,84 407.025,82.5703 Q405.9,81.1406 405.9,78.1875 Q405.9,75.6875 407.0875,74 Q408.275,72.3125 410.3375,72.3125 Q410.7906,72.3125 411.2281,72.3125 Q411.6656,72.3125 411.9781,72.3125 Q412.2281,72.3125 412.3922,72.3125 Q412.5563,72.3125 412.9625,72.3125 L413.6656,76 L412.6031,76 Q412.1656,74.9063 411.5953,74.4531 Q411.025,74 410.1031,74 Q408.9469,74 408.2672,75.1797 Q407.5875,76.3594 407.5875,78.1875 Q407.5875,80.2031 408.1109,81.2578 Q408.6344,82.3125 410.0406,82.3125 Q410.9625,82.3125 411.6109,81.7422 Q412.2594,81.1719 412.6031,79.7813 L413.6344,80.2969 Q413.2438,82.0469 412.3063,83.0234 Q411.3688,84 410.0875,84 Z "/><text fill="#000000" font-family="sans-serif" font-size="12" lengthAdjust="spacingAndGlyphs" textLength="28" x="425.6" y="83.5576">Pizza</text><line style="stroke: #A80036; stroke-width: 1.5;" x1="391" x2="461" y1="94" y2="94"/><line style="stroke: #A80036; stroke-width: 1.5;" x1="391" x2="461" y1="102" y2="102"/><ellipse cx="401" cy="113" fill="#84BE84" rx="3" ry="3" style="stroke: #038048; stroke-width: 1.0;"/><text fill="#000000" font-family="sans-serif" font-size="11" lengthAdjust="spacingAndGlyphs" textLength="46" x="410" y="118.606">prepare()</text><ellipse cx="401" cy="128.0229" fill="#84BE84" rx="3" ry="3" style="stroke: #038048; stroke-width: 1.0;"/><text fill="#000000" font-family="sans-serif" font-size="11" lengthAdjust="spacingAndGlyphs" textLength="31" x="410" y="133.6289">bake()</text><ellipse cx="401" cy="143.0459" fill="#84BE84" rx="3" ry="3" style="stroke: #038048; stroke-width: 1.0;"/><text fill="#000000" font-family="sans-serif" font-size="11" lengthAdjust="spacingAndGlyphs" textLength="23" x="410" y="148.6519">cut()</text><ellipse cx="401" cy="158.0688" fill="#84BE84" rx="3" ry="3" style="stroke: #038048; stroke-width: 1.0;"/><text fill="#000000" font-family="sans-serif" font-size="11" lengthAdjust="spacingAndGlyphs" textLength="26" x="410" y="163.6748">box()</text><!--MD5=[bb7b7b7f24e149315272ca99cc15d0b2]
class CheesePizza--><rect fill="#FEFECE" filter="url(#f1g9hqddoy0017)" height="48" id="CheesePizza" style="stroke: #A80036; stroke-width: 1.5;" width="104" x="38" y="237.5"/><ellipse cx="53" cy="253.5" fill="#ADD1B2" rx="11" ry="11" style="stroke: #A80036; stroke-width: 1.0;"/><path d="M52.6875,259.5 Q50.75,259.5 49.625,258.0703 Q48.5,256.6406 48.5,253.6875 Q48.5,251.1875 49.6875,249.5 Q50.875,247.8125 52.9375,247.8125 Q53.3906,247.8125 53.8281,247.8125 Q54.2656,247.8125 54.5781,247.8125 Q54.8281,247.8125 54.9922,247.8125 Q55.1563,247.8125 55.5625,247.8125 L56.2656,251.5 L55.2031,251.5 Q54.7656,250.4063 54.1953,249.9531 Q53.625,249.5 52.7031,249.5 Q51.5469,249.5 50.8672,250.6797 Q50.1875,251.8594 50.1875,253.6875 Q50.1875,255.7031 50.7109,256.7578 Q51.2344,257.8125 52.6406,257.8125 Q53.5625,257.8125 54.2109,257.2422 Q54.8594,256.6719 55.2031,255.2813 L56.2344,255.7969 Q55.8438,257.5469 54.9063,258.5234 Q53.9688,259.5 52.6875,259.5 Z "/><text fill="#000000" font-family="sans-serif" font-size="12" lengthAdjust="spacingAndGlyphs" textLength="72" x="67" y="259.0576">CheesePizza</text><line style="stroke: #A80036; stroke-width: 1.5;" x1="39" x2="141" y1="269.5" y2="269.5"/><line style="stroke: #A80036; stroke-width: 1.5;" x1="39" x2="141" y1="277.5" y2="277.5"/><!--MD5=[b57cfb30b6e2a9be323be17c456b21ed]
class VeggiePizza--><rect fill="#FEFECE" filter="url(#f1g9hqddoy0017)" height="48" id="VeggiePizza" style="stroke: #A80036; stroke-width: 1.5;" width="98" x="177" y="237.5"/><ellipse cx="192" cy="253.5" fill="#ADD1B2" rx="11" ry="11" style="stroke: #A80036; stroke-width: 1.0;"/><path d="M191.6875,259.5 Q189.75,259.5 188.625,258.0703 Q187.5,256.6406 187.5,253.6875 Q187.5,251.1875 188.6875,249.5 Q189.875,247.8125 191.9375,247.8125 Q192.3906,247.8125 192.8281,247.8125 Q193.2656,247.8125 193.5781,247.8125 Q193.8281,247.8125 193.9922,247.8125 Q194.1563,247.8125 194.5625,247.8125 L195.2656,251.5 L194.2031,251.5 Q193.7656,250.4063 193.1953,249.9531 Q192.625,249.5 191.7031,249.5 Q190.5469,249.5 189.8672,250.6797 Q189.1875,251.8594 189.1875,253.6875 Q189.1875,255.7031 189.7109,256.7578 Q190.2344,257.8125 191.6406,257.8125 Q192.5625,257.8125 193.2109,257.2422 Q193.8594,256.6719 194.2031,255.2813 L195.2344,255.7969 Q194.8438,257.5469 193.9063,258.5234 Q192.9688,259.5 191.6875,259.5 Z "/><text fill="#000000" font-family="sans-serif" font-size="12" lengthAdjust="spacingAndGlyphs" textLength="66" x="206" y="259.0576">VeggiePizza</text><line style="stroke: #A80036; stroke-width: 1.5;" x1="178" x2="274" y1="269.5" y2="269.5"/><line style="stroke: #A80036; stroke-width: 1.5;" x1="178" x2="274" y1="277.5" y2="277.5"/><!--MD5=[69adf9b590f774b46f34e6be464a3b7a]
class ClamPizza--><rect fill="#FEFECE" filter="url(#f1g9hqddoy0017)" height="48" id="ClamPizza" style="stroke: #A80036; stroke-width: 1.5;" width="90" x="310" y="237.5"/><ellipse cx="325" cy="253.5" fill="#ADD1B2" rx="11" ry="11" style="stroke: #A80036; stroke-width: 1.0;"/><path d="M324.6875,259.5 Q322.75,259.5 321.625,258.0703 Q320.5,256.6406 320.5,253.6875 Q320.5,251.1875 321.6875,249.5 Q322.875,247.8125 324.9375,247.8125 Q325.3906,247.8125 325.8281,247.8125 Q326.2656,247.8125 326.5781,247.8125 Q326.8281,247.8125 326.9922,247.8125 Q327.1563,247.8125 327.5625,247.8125 L328.2656,251.5 L327.2031,251.5 Q326.7656,250.4063 326.1953,249.9531 Q325.625,249.5 324.7031,249.5 Q323.5469,249.5 322.8672,250.6797 Q322.1875,251.8594 322.1875,253.6875 Q322.1875,255.7031 322.7109,256.7578 Q323.2344,257.8125 324.6406,257.8125 Q325.5625,257.8125 326.2109,257.2422 Q326.8594,256.6719 327.2031,255.2813 L328.2344,255.7969 Q327.8438,257.5469 326.9063,258.5234 Q325.9688,259.5 324.6875,259.5 Z "/><text fill="#000000" font-family="sans-serif" font-size="12" lengthAdjust="spacingAndGlyphs" textLength="58" x="339" y="259.0576">ClamPizza</text><line style="stroke: #A80036; stroke-width: 1.5;" x1="311" x2="399" y1="269.5" y2="269.5"/><line style="stroke: #A80036; stroke-width: 1.5;" x1="311" x2="399" y1="277.5" y2="277.5"/><!--MD5=[5687e49d5780798970ec66d4564600d2]
class PepperoniPizza--><rect fill="#FEFECE" filter="url(#f1g9hqddoy0017)" height="48" id="PepperoniPizza" style="stroke: #A80036; stroke-width: 1.5;" width="117" x="435.5" y="237.5"/><ellipse cx="450.5" cy="253.5" fill="#ADD1B2" rx="11" ry="11" style="stroke: #A80036; stroke-width: 1.0;"/><path d="M450.1875,259.5 Q448.25,259.5 447.125,258.0703 Q446,256.6406 446,253.6875 Q446,251.1875 447.1875,249.5 Q448.375,247.8125 450.4375,247.8125 Q450.8906,247.8125 451.3281,247.8125 Q451.7656,247.8125 452.0781,247.8125 Q452.3281,247.8125 452.4922,247.8125 Q452.6563,247.8125 453.0625,247.8125 L453.7656,251.5 L452.7031,251.5 Q452.2656,250.4063 451.6953,249.9531 Q451.125,249.5 450.2031,249.5 Q449.0469,249.5 448.3672,250.6797 Q447.6875,251.8594 447.6875,253.6875 Q447.6875,255.7031 448.2109,256.7578 Q448.7344,257.8125 450.1406,257.8125 Q451.0625,257.8125 451.7109,257.2422 Q452.3594,256.6719 452.7031,255.2813 L453.7344,255.7969 Q453.3438,257.5469 452.4063,258.5234 Q451.4688,259.5 450.1875,259.5 Z "/><text fill="#000000" font-family="sans-serif" font-size="12" lengthAdjust="spacingAndGlyphs" textLength="85" x="464.5" y="259.0576">PepperoniPizza</text><line style="stroke: #A80036; stroke-width: 1.5;" x1="436.5" x2="551.5" y1="269.5" y2="269.5"/><line style="stroke: #A80036; stroke-width: 1.5;" x1="436.5" x2="551.5" y1="277.5" y2="277.5"/><!--MD5=[2c589014e840926a718801db2289e0a7]
class Creator--><rect fill="#FEFECE" filter="url(#f1g9hqddoy0017)" height="93.0688" id="Creator" style="stroke: #A80036; stroke-width: 1.5;" width="174" x="738" y="69.5"/><ellipse cx="800.25" cy="85.5" fill="#A9DCDF" rx="11" ry="11" style="stroke: #A80036; stroke-width: 1.0;"/><path d="M801.3281,86.5 L798.5156,86.5 L797.7031,88.1094 Q797.6563,88.2656 797.6563,88.4063 Q797.6563,88.5938 797.7031,88.7031 Q797.75,88.8125 797.9688,88.8125 L798.5156,88.8125 L798.5156,90.5 L795.25,90.5 L795.25,88.8125 L795.8125,88.8125 Q796.0313,88.8125 796.1484,88.75 Q796.2656,88.6875 796.3125,88.5 L799.4063,78.8125 L800.7813,78.8125 L803.8125,88.3906 Q803.9063,88.625 804.0469,88.7188 Q804.1875,88.8125 804.375,88.8125 L804.9375,88.8125 L804.9375,90.5 L801.2813,90.5 L801.2813,88.8125 L801.8906,88.8125 Q802.0625,88.8125 802.0703,88.7969 Q802.0781,88.7813 802.0781,88.7188 Q802.0781,88.5469 802.0469,88.4531 L801.3281,86.5 Z M796.1094,89.5 L796.1094,89.5 Z M796.7813,89.5 L796.7813,89.5 Z M801.5,89.5 L801.5,89.5 Z M802.625,89.5 L802.625,89.5 Z M799.8281,80.9063 L799.9063,80.9063 L799.0469,84.8125 L801,84.8125 L799.8281,80.9063 Z "/><text fill="#000000" font-family="sans-serif" font-size="12" font-style="italic" lengthAdjust="spacingAndGlyphs" textLength="41" x="820.75" y="91.0576">Creator</text><line style="stroke: #A80036; stroke-width: 1.5;" x1="739" x2="911" y1="101.5" y2="101.5"/><line style="stroke: #A80036; stroke-width: 1.5;" x1="739" x2="911" y1="109.5" y2="109.5"/><ellipse cx="749" cy="120.5" fill="#84BE84" rx="3" ry="3" style="stroke: #038048; stroke-width: 1.0;"/><text fill="#000000" font-family="sans-serif" font-size="11" lengthAdjust="spacingAndGlyphs" textLength="118" x="758" y="126.106">Product factoryMethod()</text><rect fill="#F24D5C" height="6" style="stroke: #C82930; stroke-width: 1.0;" width="6" x="746" y="132.5229"/><text fill="#000000" font-family="sans-serif" font-size="11" lengthAdjust="spacingAndGlyphs" textLength="148" x="758" y="141.1289">void operationProductMethod()</text><text fill="#000000" font-family="sans-serif" font-size="11" lengthAdjust="spacingAndGlyphs" textLength="17" x="758" y="156.1519">...()</text><!--MD5=[be088d5ac266ed160f38e28fb0601a4a]
class ConcreteCreate--><rect fill="#FEFECE" filter="url(#f1g9hqddoy0017)" height="63.0229" id="ConcreteCreate" style="stroke: #A80036; stroke-width: 1.5;" width="144" x="768" y="230"/><ellipse cx="794.25" cy="246" fill="#ADD1B2" rx="11" ry="11" style="stroke: #A80036; stroke-width: 1.0;"/><path d="M793.9375,252 Q792,252 790.875,250.5703 Q789.75,249.1406 789.75,246.1875 Q789.75,243.6875 790.9375,242 Q792.125,240.3125 794.1875,240.3125 Q794.6406,240.3125 795.0781,240.3125 Q795.5156,240.3125 795.8281,240.3125 Q796.0781,240.3125 796.2422,240.3125 Q796.4063,240.3125 796.8125,240.3125 L797.5156,244 L796.4531,244 Q796.0156,242.9063 795.4453,242.4531 Q794.875,242 793.9531,242 Q792.7969,242 792.1172,243.1797 Q791.4375,244.3594 791.4375,246.1875 Q791.4375,248.2031 791.9609,249.2578 Q792.4844,250.3125 793.8906,250.3125 Q794.8125,250.3125 795.4609,249.7422 Q796.1094,249.1719 796.4531,247.7813 L797.4844,248.2969 Q797.0938,250.0469 796.1563,251.0234 Q795.2188,252 793.9375,252 Z "/><text fill="#000000" font-family="sans-serif" font-size="12" lengthAdjust="spacingAndGlyphs" textLength="87" x="810.75" y="251.5576">ConcreteCreate</text><line style="stroke: #A80036; stroke-width: 1.5;" x1="769" x2="911" y1="262" y2="262"/><line style="stroke: #A80036; stroke-width: 1.5;" x1="769" x2="911" y1="270" y2="270"/><ellipse cx="779" cy="281" fill="#84BE84" rx="3" ry="3" style="stroke: #038048; stroke-width: 1.0;"/><text fill="#000000" font-family="sans-serif" font-size="11" lengthAdjust="spacingAndGlyphs" textLength="118" x="788" y="286.606">Product factoryMethod()</text><!--MD5=[72136138052d025cffdce3c22fbd185f]
class Product--><rect fill="#FEFECE" filter="url(#f1g9hqddoy0017)" height="48" id="Product" style="stroke: #A80036; stroke-width: 1.5;" width="74" x="629" y="92"/><ellipse cx="644" cy="108" fill="#ADD1B2" rx="11" ry="11" style="stroke: #A80036; stroke-width: 1.0;"/><path d="M643.6875,114 Q641.75,114 640.625,112.5703 Q639.5,111.1406 639.5,108.1875 Q639.5,105.6875 640.6875,104 Q641.875,102.3125 643.9375,102.3125 Q644.3906,102.3125 644.8281,102.3125 Q645.2656,102.3125 645.5781,102.3125 Q645.8281,102.3125 645.9922,102.3125 Q646.1563,102.3125 646.5625,102.3125 L647.2656,106 L646.2031,106 Q645.7656,104.9063 645.1953,104.4531 Q644.625,104 643.7031,104 Q642.5469,104 641.8672,105.1797 Q641.1875,106.3594 641.1875,108.1875 Q641.1875,110.2031 641.7109,111.2578 Q642.2344,112.3125 643.6406,112.3125 Q644.5625,112.3125 645.2109,111.7422 Q645.8594,111.1719 646.2031,109.7813 L647.2344,110.2969 Q646.8438,112.0469 645.9063,113.0234 Q644.9688,114 643.6875,114 Z "/><text fill="#000000" font-family="sans-serif" font-size="12" lengthAdjust="spacingAndGlyphs" textLength="42" x="658" y="113.5576">Product</text><line style="stroke: #A80036; stroke-width: 1.5;" x1="630" x2="702" y1="124" y2="124"/><line style="stroke: #A80036; stroke-width: 1.5;" x1="630" x2="702" y1="132" y2="132"/><!--MD5=[990132e04f994323e3060f5453bb4352]
class ConcreteProduct--><rect fill="#FEFECE" filter="url(#f1g9hqddoy0017)" height="48" id="ConcreteProduct" style="stroke: #A80036; stroke-width: 1.5;" width="124" x="609" y="237.5"/><ellipse cx="624" cy="253.5" fill="#ADD1B2" rx="11" ry="11" style="stroke: #A80036; stroke-width: 1.0;"/><path d="M623.6875,259.5 Q621.75,259.5 620.625,258.0703 Q619.5,256.6406 619.5,253.6875 Q619.5,251.1875 620.6875,249.5 Q621.875,247.8125 623.9375,247.8125 Q624.3906,247.8125 624.8281,247.8125 Q625.2656,247.8125 625.5781,247.8125 Q625.8281,247.8125 625.9922,247.8125 Q626.1563,247.8125 626.5625,247.8125 L627.2656,251.5 L626.2031,251.5 Q625.7656,250.4063 625.1953,249.9531 Q624.625,249.5 623.7031,249.5 Q622.5469,249.5 621.8672,250.6797 Q621.1875,251.8594 621.1875,253.6875 Q621.1875,255.7031 621.7109,256.7578 Q622.2344,257.8125 623.6406,257.8125 Q624.5625,257.8125 625.2109,257.2422 Q625.8594,256.6719 626.2031,255.2813 L627.2344,255.7969 Q626.8438,257.5469 625.9063,258.5234 Q624.9688,259.5 623.6875,259.5 Z "/><text fill="#000000" font-family="sans-serif" font-size="12" lengthAdjust="spacingAndGlyphs" textLength="92" x="638" y="259.0576">ConcreteProduct</text><line style="stroke: #A80036; stroke-width: 1.5;" x1="610" x2="732" y1="269.5" y2="269.5"/><line style="stroke: #A80036; stroke-width: 1.5;" x1="610" x2="732" y1="277.5" y2="277.5"/><!--MD5=[8f574cacc568233a59984bc8b8889b74]
reverse link Pizza to CheesePizza--><path d="M373.753,168.958 C373.17,169.313 372.586,169.66 372,170 C286.91,219.321 251.543,196.702 159,230 C152.715,232.2615 146.195,234.8324 139.785,237.4997 " fill="none" id="Pizza&lt;-CheesePizza" style="stroke: #A80036; stroke-width: 1.0;"/><polygon fill="none" points="369.713,163.24,389.967,157.011,378.018,174.511,369.713,163.24" style="stroke: #A80036; stroke-width: 1.0;"/><!--MD5=[2b6247ce0f74fd1e5cf18c23466342d1]
reverse link Pizza to VeggiePizza--><path d="M374.531,167.982 C373.687,168.665 372.843,169.338 372,170 C339.158,195.778 298.572,220.428 268.535,237.4731 " fill="none" id="Pizza&lt;-VeggiePizza" style="stroke: #A80036; stroke-width: 1.0;"/><polygon fill="none" points="370.148,162.516,389.815,154.629,379.359,173.059,370.148,162.516" style="stroke: #A80036; stroke-width: 1.0;"/><!--MD5=[f33c29a64ee839b900ba1cf234ca1f13]
reverse link Pizza to ClamPizza--><path d="M390.856,188.03 C382.037,205.855 373.188,223.739 366.488,237.281 " fill="none" id="Pizza&lt;-ClamPizza" style="stroke: #A80036; stroke-width: 1.0;"/><polygon fill="none" points="384.621,184.848,399.764,170.026,397.169,191.057,384.621,184.848" style="stroke: #A80036; stroke-width: 1.0;"/><!--MD5=[a4336046344e37e2fd0ef24fcd23c7f8]
reverse link Pizza to PepperoniPizza--><path d="M459.792,188.31 C468.194,206.042 476.614,223.81 482.997,237.281 " fill="none" id="Pizza&lt;-PepperoniPizza" style="stroke: #A80036; stroke-width: 1.0;"/><polygon fill="none" points="453.366,191.097,451.127,170.026,466.018,185.102,453.366,191.097" style="stroke: #A80036; stroke-width: 1.0;"/><!--MD5=[c513c7125098d7a9bd0f452350052bd5]
link SimpleFactory to Pizza--><path d="M354.779,116 C364.73,116 374.68,116 384.63,116 " fill="none" id="SimpleFactory-&gt;Pizza" style="stroke: #A80036; stroke-width: 1.0;"/><polygon fill="#A80036" points="389.833,116,380.833,112,384.833,116,380.833,120,389.833,116" style="stroke: #A80036; stroke-width: 1.0;"/><!--MD5=[176ec9ad2524e7cd4e064bbd6d526f2c]
link PizzaStore to SimpleFactory--><path d="M176.094,116 C186.051,116 196.008,116 205.965,116 " fill="none" id="PizzaStore-&gt;SimpleFactory" style="stroke: #A80036; stroke-width: 1.0;"/><polygon fill="#A80036" points="211.172,116,202.172,112,206.172,116,202.172,120,211.172,116" style="stroke: #A80036; stroke-width: 1.0;"/><!--MD5=[8b800da190e1f294e82c7268483f21cc]
reverse link Creator to ConcreteCreate--><path d="M831.894,182.954 C833.596,199.237 835.34,215.92 836.772,229.6206 " fill="none" id="Creator&lt;-ConcreteCreate" style="stroke: #A80036; stroke-width: 1.0;"/><polygon fill="none" points="824.905,183.418,829.787,162.799,838.829,181.963,824.905,183.418" style="stroke: #A80036; stroke-width: 1.0;"/><!--MD5=[03f389ab946010d19db5823a3056b88d]
reverse link Product to ConcreteProduct--><path d="M667.511,160.365 C668.389,185.55 669.46,216.299 670.182,237.0247 " fill="none" id="Product&lt;-ConcreteProduct" style="stroke: #A80036; stroke-width: 1.0;"/><polygon fill="none" points="660.504,160.287,666.803,140.056,674.496,159.8,660.504,160.287" style="stroke: #A80036; stroke-width: 1.0;"/><!--MD5=[38d0feb8faa10542f6f776c21501eae7]
reverse link ConcreteProduct to ConcreteCreate--><path d="M738.202,261.5 C748.044,261.5 757.886,261.5 767.728,261.5 " fill="none" id="ConcreteProduct&lt;-ConcreteCreate" style="stroke: #A80036; stroke-width: 1.0;"/><polygon fill="#A80036" points="733.055,261.5,742.055,265.5,738.055,261.5,742.055,257.5,733.055,261.5" style="stroke: #A80036; stroke-width: 1.0;"/><!--MD5=[7770381452072fcbb0597390ee984241]
@startuml

package 简单工厂 <<Rectangle>>{
    class PizzaStore{
        +orderPizza(String type)
    }

    class SimpleFactory{
        +createPizza(String type)
    }

    class Pizza{
        +prepare()
        +bake()
        +cut()
        +box()
    }

    class CheesePizza{

    }

    class VeggiePizza{

    }

    class ClamPizza{

    }

    class PepperoniPizza{

    }

    Pizza <|- - CheesePizza
    Pizza <|- - VeggiePizza
    Pizza <|- - ClamPizza
    Pizza <|- - PepperoniPizza

    SimpleFactory -right-> Pizza
    PizzaStore -right-> SimpleFactory
}

package 工厂方法 <<Rectangle>> {
    abstract class Creator{
        +Product factoryMethod()
        -void operationProductMethod()
        ...()
    }

    class ConcreteCreate{
        +Product factoryMethod()
    }

    Creator <|- - ConcreteCreate

    class Product{
    }

    class ConcreteProduct{

    }

    Product <|- - ConcreteProduct

    ConcreteCreate -left-> ConcreteProduct

}








@enduml

PlantUML version 1.2020.03beta6(Unknown compile time)
(GPL source distribution)
Java Runtime: OpenJDK Runtime Environment
JVM: OpenJDK 64-Bit Server VM
Java Version: 1.8.0_202-release-1483-b58
Operating System: Windows 10
Default Encoding: GBK
Language: zh
Country: CN
--></g></svg>